<?xml version="1.0" encoding="utf-8"?>
<!-- Generator: Adobe Illustrator 21.0.0, SVG Export Plug-In . SVG Version: 6.00 Build 0)  -->
<svg version="1.1" id="Layer_1" xmlns="http://www.w3.org/2000/svg" xmlns:xlink="http://www.w3.org/1999/xlink" x="0px" y="0px"
	 viewBox="0 0 200 131.3" style="enable-background:new 0 0 200 131.3;" xml:space="preserve">
<style type="text/css">
	.st0{fill:#FF4B55;}
	.st1{fill:#FFE15A;}
</style>
<g>
	<path class="st0" d="M196.6,131.3H3.4c-1.9,0-3.4-1.5-3.4-3.4V3.7c0-1.9,1.5-3.4,3.4-3.4h193.1c1.9,0,3.4,1.5,3.4,3.4v124.1
		C200,129.8,198.5,131.3,196.6,131.3L196.6,131.3z M196.6,131.3"/>
	<path class="st1" d="M101.6,26.7l9.2,27.7l29.2,0.2c1.6,0,2.3,2.1,1,3.1L117.5,75l8.8,27.8c0.5,1.6-1.3,2.8-2.6,1.9l-23.7-17
		l-23.7,17c-1.3,0.9-3.1-0.3-2.6-1.9L82.5,75L59,57.6c-1.3-1-0.6-3,1-3.1l29.1-0.2l9.2-27.7C98.9,25.2,101.1,25.2,101.6,26.7
		L101.6,26.7z M101.6,26.7"/>
</g>
</svg>
