<?xml version="1.0" encoding="utf-8"?>
<!-- Generator: Adobe Illustrator 21.0.0, SVG Export Plug-In . SVG Version: 6.00 Build 0)  -->
<svg version="1.1" id="Layer_1" xmlns="http://www.w3.org/2000/svg" xmlns:xlink="http://www.w3.org/1999/xlink" x="0px" y="0px"
	 viewBox="0 0 200 200" style="enable-background:new 0 0 200 200;" xml:space="preserve">
<style type="text/css">
	.st0{fill:#FFFFFF;}
</style>
<g>
	<path class="st0" d="M100,55c-11.4,0-20.7,9.3-20.7,20.7s9.3,20.7,20.7,20.7s20.7-9.3,20.7-20.7S111.4,55,100,55L100,55z"/>
	<path class="st0" d="M100,0C57.7,0,23.2,34.4,23.2,76.8c0,17.9,6.2,34.4,16.5,47.5L100,200l60.2-75.7
		c10.3-13.1,16.5-29.6,16.5-47.5C176.8,34.4,142.3,0,100,0L100,0z M100,110.3c-19.1,0-34.5-15.5-34.5-34.5
		c0-19.1,15.5-34.5,34.5-34.5s34.5,15.5,34.5,34.5S119,110.3,100,110.3L100,110.3z"/>
</g>
</svg>
